<svg width="7771" height="1280" viewBox="0 0 7771 1280" fill="none" xmlns="http://www.w3.org/2000/svg">
<rect width="7771" height="1280" fill="#0C002F"/>
<path d="M4141.19 349.99H4051.49L4032.17 393H4014.46L4088.06 232H4104.85L4178.45 393H4160.51L4141.19 349.99ZM4134.98 336.19L4096.34 249.71L4057.7 336.19H4134.98ZM4262.81 271.1C4274.16 271.1 4284.43 273.707 4293.63 278.92C4302.83 283.98 4310.04 291.187 4315.25 300.54C4320.47 309.893 4323.07 320.55 4323.07 332.51C4323.07 344.623 4320.47 355.357 4315.25 364.71C4310.04 374.063 4302.83 381.347 4293.63 386.56C4284.59 391.62 4274.31 394.15 4262.81 394.15C4253 394.15 4244.11 392.157 4236.13 388.17C4228.31 384.03 4221.87 378.05 4216.81 370.23V437.62H4200.48V272.02H4216.12V295.94C4221.03 287.967 4227.47 281.833 4235.44 277.54C4243.57 273.247 4252.69 271.1 4262.81 271.1ZM4261.66 379.66C4270.1 379.66 4277.76 377.743 4284.66 373.91C4291.56 369.923 4296.93 364.327 4300.76 357.12C4304.75 349.913 4306.74 341.71 4306.74 332.51C4306.74 323.31 4304.75 315.183 4300.76 308.13C4296.93 300.923 4291.56 295.327 4284.66 291.34C4277.76 287.353 4270.1 285.36 4261.66 285.36C4253.08 285.36 4245.33 287.353 4238.43 291.34C4231.69 295.327 4226.32 300.923 4222.33 308.13C4218.5 315.183 4216.58 323.31 4216.58 332.51C4216.58 341.71 4218.5 349.913 4222.33 357.12C4226.32 364.327 4231.69 369.923 4238.43 373.91C4245.33 377.743 4253.08 379.66 4261.66 379.66ZM4396.86 271.1C4412.65 271.1 4424.77 275.087 4433.2 283.06C4441.63 290.88 4445.85 302.533 4445.85 318.02V393H4430.21V374.14C4426.53 380.427 4421.09 385.333 4413.88 388.86C4406.83 392.387 4398.39 394.15 4388.58 394.15C4375.09 394.15 4364.35 390.93 4356.38 384.49C4348.41 378.05 4344.42 369.54 4344.42 358.96C4344.42 348.687 4348.1 340.407 4355.46 334.12C4362.97 327.833 4374.86 324.69 4391.11 324.69H4429.52V317.33C4429.52 306.903 4426.61 299.007 4420.78 293.64C4414.95 288.12 4406.44 285.36 4395.25 285.36C4387.58 285.36 4380.22 286.663 4373.17 289.27C4366.12 291.723 4360.06 295.173 4355 299.62L4347.64 287.43C4353.77 282.217 4361.13 278.23 4369.72 275.47C4378.31 272.557 4387.35 271.1 4396.86 271.1ZM4391.11 381.27C4400.31 381.27 4408.21 379.2 4414.8 375.06C4421.39 370.767 4426.3 364.633 4429.52 356.66V336.88H4391.57C4370.87 336.88 4360.52 344.087 4360.52 358.5C4360.52 365.553 4363.2 371.15 4368.57 375.29C4373.94 379.277 4381.45 381.27 4391.11 381.27ZM4504.69 295.71C4508.53 287.583 4514.2 281.45 4521.71 277.31C4529.38 273.17 4538.81 271.1 4550 271.1V286.97L4546.09 286.74C4533.37 286.74 4523.4 290.65 4516.19 298.47C4508.99 306.29 4505.38 317.253 4505.38 331.36V393H4489.05V272.02H4504.69V295.71ZM4620.52 271.1C4636.31 271.1 4648.42 275.087 4656.86 283.06C4665.29 290.88 4669.51 302.533 4669.51 318.02V393H4653.87V374.14C4650.19 380.427 4644.74 385.333 4637.54 388.86C4630.48 392.387 4622.05 394.15 4612.24 394.15C4598.74 394.15 4588.01 390.93 4580.04 384.49C4572.06 378.05 4568.08 369.54 4568.08 358.96C4568.08 348.687 4571.76 340.407 4579.12 334.12C4586.63 327.833 4598.51 324.69 4614.77 324.69H4653.18V317.33C4653.18 306.903 4650.26 299.007 4644.44 293.64C4638.61 288.12 4630.1 285.36 4618.91 285.36C4611.24 285.36 4603.88 286.663 4596.83 289.27C4589.77 291.723 4583.72 295.173 4578.66 299.62L4571.3 287.43C4577.43 282.217 4584.79 278.23 4593.38 275.47C4601.96 272.557 4611.01 271.1 4620.52 271.1ZM4614.77 381.27C4623.97 381.27 4631.86 379.2 4638.46 375.06C4645.05 370.767 4649.96 364.633 4653.18 356.66V336.88H4615.23C4594.53 336.88 4584.18 344.087 4584.18 358.5C4584.18 365.553 4586.86 371.15 4592.23 375.29C4597.59 379.277 4605.11 381.27 4614.77 381.27ZM4774.35 271.1C4789.53 271.1 4801.57 275.547 4810.46 284.44C4819.51 293.18 4824.03 305.983 4824.03 322.85V393H4807.7V324.46C4807.7 311.887 4804.56 302.303 4798.27 295.71C4791.98 289.117 4783.01 285.82 4771.36 285.82C4758.33 285.82 4747.98 289.73 4740.31 297.55C4732.8 305.217 4729.04 315.873 4729.04 329.52V393H4712.71V272.02H4728.35V294.33C4732.8 286.97 4738.93 281.297 4746.75 277.31C4754.72 273.17 4763.92 271.1 4774.35 271.1ZM4867.44 291.57C4864.84 291.57 4862.54 290.65 4860.54 288.81C4858.7 286.817 4857.78 284.44 4857.78 281.68C4857.78 278.92 4858.7 276.62 4860.54 274.78C4862.54 272.94 4864.84 272.02 4867.44 272.02C4870.05 272.02 4872.27 272.94 4874.11 274.78C4876.11 276.62 4877.1 278.92 4877.1 281.68C4877.1 284.44 4876.11 286.817 4874.11 288.81C4872.27 290.65 4870.05 291.57 4867.44 291.57ZM4867.44 393.92C4864.84 393.92 4862.54 393 4860.54 391.16C4858.7 389.167 4857.78 386.79 4857.78 384.03C4857.78 381.27 4858.7 378.97 4860.54 377.13C4862.54 375.29 4864.84 374.37 4867.44 374.37C4870.05 374.37 4872.27 375.29 4874.11 377.13C4876.11 378.97 4877.1 381.27 4877.1 384.03C4877.1 386.79 4876.11 389.167 4874.11 391.16C4872.27 393 4870.05 393.92 4867.44 393.92ZM5074.91 347.69H4981.53L4961.06 393H4948.41L5022.47 232H5034.2L5108.26 393H5095.61L5074.91 347.69ZM5070.54 337.8L5028.22 244.88L4986.13 337.8H5070.54ZM5306.04 393L5267.63 339.18C5261.96 339.947 5256.74 340.33 5251.99 340.33H5205.99V393H5194.26V232H5251.99C5272.23 232 5288.1 236.83 5299.6 246.49C5311.1 255.997 5316.85 269.26 5316.85 286.28C5316.85 299.007 5313.55 309.74 5306.96 318.48C5300.52 327.067 5291.24 333.123 5279.13 336.65L5319.38 393H5306.04ZM5251.99 329.98C5269.16 329.98 5282.27 326.223 5291.32 318.71C5300.37 311.043 5304.89 300.233 5304.89 286.28C5304.89 272.327 5300.37 261.593 5291.32 254.08C5282.27 246.413 5269.16 242.58 5251.99 242.58H5205.99V329.98H5251.99ZM5426.96 394.15C5411.16 394.15 5396.9 390.623 5384.18 383.57C5371.45 376.363 5361.41 366.55 5354.05 354.13C5346.84 341.71 5343.24 327.833 5343.24 312.5C5343.24 297.167 5346.84 283.29 5354.05 270.87C5361.41 258.45 5371.45 248.713 5384.18 241.66C5396.9 234.453 5411.16 230.85 5426.96 230.85C5442.75 230.85 5457.01 234.377 5469.74 241.43C5482.46 248.483 5492.43 258.22 5499.64 270.64C5507 283.06 5510.68 297.013 5510.68 312.5C5510.68 327.987 5507 341.94 5499.64 354.36C5492.43 366.78 5482.46 376.517 5469.74 383.57C5457.01 390.623 5442.75 394.15 5426.96 394.15ZM5426.96 383.34C5440.45 383.34 5452.64 380.273 5463.53 374.14C5474.41 368.007 5483 359.573 5489.29 348.84C5495.57 337.953 5498.72 325.84 5498.72 312.5C5498.72 299.16 5495.57 287.123 5489.29 276.39C5483 265.503 5474.41 256.993 5463.53 250.86C5452.64 244.727 5440.45 241.66 5426.96 241.66C5413.46 241.66 5401.2 244.727 5390.16 250.86C5379.27 256.993 5370.68 265.503 5364.4 276.39C5358.11 287.123 5354.97 299.16 5354.97 312.5C5354.97 325.84 5358.11 337.953 5364.4 348.84C5370.68 359.573 5379.27 368.007 5390.16 374.14C5401.2 380.273 5413.46 383.34 5426.96 383.34ZM5592.53 394.15C5580.73 394.15 5569.46 392.157 5558.72 388.17C5548.14 384.03 5539.86 378.74 5533.88 372.3L5539.17 363.56C5544.85 369.54 5552.44 374.447 5561.94 378.28C5571.6 381.96 5581.72 383.8 5592.3 383.8C5607.64 383.8 5619.21 380.887 5627.03 375.06C5634.85 369.233 5638.76 361.643 5638.76 352.29C5638.76 345.083 5636.69 339.333 5632.55 335.04C5628.41 330.747 5623.28 327.45 5617.14 325.15C5611.01 322.85 5602.73 320.473 5592.3 318.02C5580.5 315.107 5570.99 312.27 5563.78 309.51C5556.73 306.75 5550.67 302.533 5545.61 296.86C5540.71 291.033 5538.25 283.29 5538.25 273.63C5538.25 265.81 5540.32 258.68 5544.46 252.24C5548.6 245.647 5554.89 240.433 5563.32 236.6C5571.91 232.767 5582.57 230.85 5595.29 230.85C5604.19 230.85 5612.93 232.153 5621.51 234.76C5630.1 237.367 5637.54 240.893 5643.82 245.34L5639.45 254.77C5633.01 250.323 5625.88 246.95 5618.06 244.65C5610.4 242.35 5602.81 241.2 5595.29 241.2C5580.42 241.2 5569.15 244.19 5561.48 250.17C5553.82 256.15 5549.98 263.893 5549.98 273.4C5549.98 280.607 5552.05 286.357 5556.19 290.65C5560.33 294.943 5565.47 298.24 5571.6 300.54C5577.74 302.84 5586.09 305.293 5596.67 307.9C5608.48 310.813 5617.91 313.65 5624.96 316.41C5632.02 319.17 5638 323.387 5642.9 329.06C5647.96 334.58 5650.49 342.093 5650.49 351.6C5650.49 359.42 5648.35 366.55 5644.05 372.99C5639.91 379.43 5633.47 384.567 5624.73 388.4C5615.99 392.233 5605.26 394.15 5592.53 394.15ZM5679.69 326.07H5738.8V336.42H5679.69V326.07ZM5776.25 222.34H5787.75V393H5776.25V222.34ZM5835.08 272.94H5846.58V393H5835.08V272.94ZM5840.83 243.73C5838.22 243.73 5836 242.887 5834.16 241.2C5832.32 239.36 5831.4 237.137 5831.4 234.53C5831.4 231.923 5832.32 229.7 5834.16 227.86C5836 226.02 5838.22 225.1 5840.83 225.1C5843.43 225.1 5845.66 226.02 5847.5 227.86C5849.34 229.547 5850.26 231.693 5850.26 234.3C5850.26 236.907 5849.34 239.13 5847.5 240.97C5845.66 242.81 5843.43 243.73 5840.83 243.73ZM5936.68 328.83L5905.4 357.35V393H5893.9V222.34H5905.4V343.09L5982.22 272.94H5996.94L5945.19 321.47L6002 393H5987.74L5936.68 328.83ZM6124.45 335.73H6021.18C6021.49 345.083 6023.86 353.44 6028.31 360.8C6032.76 368.007 6038.74 373.603 6046.25 377.59C6053.92 381.577 6062.5 383.57 6072.01 383.57C6079.83 383.57 6087.04 382.19 6093.63 379.43C6100.38 376.517 6105.97 372.3 6110.42 366.78L6117.09 374.37C6111.88 380.657 6105.28 385.487 6097.31 388.86C6089.49 392.233 6080.98 393.92 6071.78 393.92C6059.82 393.92 6049.16 391.313 6039.81 386.1C6030.46 380.887 6023.1 373.68 6017.73 364.48C6012.52 355.28 6009.91 344.777 6009.91 332.97C6009.91 321.317 6012.36 310.89 6017.27 301.69C6022.33 292.337 6029.23 285.053 6037.97 279.84C6046.71 274.627 6056.52 272.02 6067.41 272.02C6078.3 272.02 6088.03 274.627 6096.62 279.84C6105.36 284.9 6112.18 292.03 6117.09 301.23C6122.15 310.43 6124.68 320.857 6124.68 332.51L6124.45 335.73ZM6067.41 282.14C6058.98 282.14 6051.39 284.057 6044.64 287.89C6037.89 291.57 6032.45 296.86 6028.31 303.76C6024.32 310.507 6022.02 318.173 6021.41 326.76H6113.41C6112.95 318.173 6110.65 310.507 6106.51 303.76C6102.37 297.013 6096.93 291.723 6090.18 287.89C6083.43 284.057 6075.84 282.14 6067.41 282.14ZM4068.74 612.92C4059.08 612.92 4049.88 611.463 4041.14 608.55C4032.4 605.637 4025.58 601.957 4020.67 597.51L4025.96 588.31C4030.87 592.45 4037.15 595.9 4044.82 598.66C4052.64 601.42 4060.77 602.8 4069.2 602.8C4081.31 602.8 4090.21 600.807 4095.88 596.82C4101.71 592.833 4104.62 587.313 4104.62 580.26C4104.62 575.2 4103.01 571.213 4099.79 568.3C4096.72 565.387 4092.89 563.24 4088.29 561.86C4083.69 560.48 4077.33 559.023 4069.2 557.49C4059.69 555.803 4052.03 553.963 4046.2 551.97C4040.37 549.977 4035.39 546.757 4031.25 542.31C4027.11 537.863 4025.04 531.73 4025.04 523.91C4025.04 514.403 4028.95 506.583 4036.77 500.45C4044.74 494.163 4056.01 491.02 4070.58 491.02C4078.25 491.02 4085.84 492.093 4093.35 494.24C4100.86 496.387 4107 499.223 4111.75 502.75L4106.46 511.95C4101.55 508.423 4095.96 505.74 4089.67 503.9C4083.38 502.06 4076.94 501.14 4070.35 501.14C4059.16 501.14 4050.72 503.21 4045.05 507.35C4039.38 511.49 4036.54 516.933 4036.54 523.68C4036.54 529.047 4038.15 533.263 4041.37 536.33C4044.59 539.243 4048.5 541.467 4053.1 543C4057.85 544.38 4064.45 545.913 4072.88 547.6C4082.23 549.287 4089.75 551.127 4095.42 553.12C4101.25 554.96 4106.15 558.027 4110.14 562.32C4114.13 566.613 4116.12 572.517 4116.12 580.03C4116.12 589.997 4111.98 597.97 4103.7 603.95C4095.42 609.93 4083.77 612.92 4068.74 612.92ZM4194.67 612.92C4183.02 612.92 4172.59 610.313 4163.39 605.1C4154.19 599.887 4146.99 592.68 4141.77 583.48C4136.56 574.127 4133.95 563.623 4133.95 551.97C4133.95 540.163 4136.56 529.66 4141.77 520.46C4146.99 511.107 4154.19 503.9 4163.39 498.84C4172.59 493.627 4183.02 491.02 4194.67 491.02C4204.33 491.02 4213.07 492.937 4220.89 496.77C4228.87 500.45 4235.31 505.893 4240.21 513.1L4231.7 519.31C4227.41 513.33 4222.04 508.883 4215.6 505.97C4209.32 502.903 4202.34 501.37 4194.67 501.37C4185.32 501.37 4176.89 503.517 4169.37 507.81C4162.01 511.95 4156.19 517.853 4151.89 525.52C4147.75 533.187 4145.68 542.003 4145.68 551.97C4145.68 561.937 4147.75 570.753 4151.89 578.42C4156.19 586.087 4162.01 592.067 4169.37 596.36C4176.89 600.5 4185.32 602.57 4194.67 602.57C4202.34 602.57 4209.32 601.113 4215.6 598.2C4222.04 595.133 4227.41 590.61 4231.7 584.63L4240.21 590.84C4235.31 598.047 4228.87 603.567 4220.89 607.4C4213.07 611.08 4204.33 612.92 4194.67 612.92ZM4330.12 491.02C4345.15 491.02 4357.03 495.39 4365.77 504.13C4374.51 512.87 4378.88 525.443 4378.88 541.85V612H4367.38V542.77C4367.38 529.277 4363.93 519.003 4357.03 511.95C4350.28 504.897 4340.78 501.37 4328.51 501.37C4314.4 501.37 4303.29 505.587 4295.16 514.02C4287.03 522.453 4282.97 533.8 4282.97 548.06V612H4271.47V441.34H4282.97V517.01C4287.11 508.73 4293.24 502.367 4301.37 497.92C4309.5 493.32 4319.08 491.02 4330.12 491.02ZM4526.73 554.73H4423.46C4423.77 564.083 4426.14 572.44 4430.59 579.8C4435.04 587.007 4441.02 592.603 4448.53 596.59C4456.2 600.577 4464.78 602.57 4474.29 602.57C4482.11 602.57 4489.32 601.19 4495.91 598.43C4502.66 595.517 4508.25 591.3 4512.7 585.78L4519.37 593.37C4514.16 599.657 4507.56 604.487 4499.59 607.86C4491.77 611.233 4483.26 612.92 4474.06 612.92C4462.1 612.92 4451.44 610.313 4442.09 605.1C4432.74 599.887 4425.38 592.68 4420.01 583.48C4414.8 574.28 4412.19 563.777 4412.19 551.97C4412.19 540.317 4414.64 529.89 4419.55 520.69C4424.61 511.337 4431.51 504.053 4440.25 498.84C4448.99 493.627 4458.8 491.02 4469.69 491.02C4480.58 491.02 4490.31 493.627 4498.9 498.84C4507.64 503.9 4514.46 511.03 4519.37 520.23C4524.43 529.43 4526.96 539.857 4526.96 551.51L4526.73 554.73ZM4469.69 501.14C4461.26 501.14 4453.67 503.057 4446.92 506.89C4440.17 510.57 4434.73 515.86 4430.59 522.76C4426.6 529.507 4424.3 537.173 4423.69 545.76H4515.69C4515.23 537.173 4512.93 529.507 4508.79 522.76C4504.65 516.013 4499.21 510.723 4492.46 506.89C4485.71 503.057 4478.12 501.14 4469.69 501.14ZM4668.11 441.34V612H4656.84V583.71C4652.08 593.063 4645.41 600.27 4636.83 605.33C4628.24 610.39 4618.5 612.92 4607.62 612.92C4596.42 612.92 4586.3 610.313 4577.26 605.1C4568.21 599.887 4561.08 592.68 4555.87 583.48C4550.81 574.28 4548.28 563.777 4548.28 551.97C4548.28 540.163 4550.81 529.66 4555.87 520.46C4561.08 511.107 4568.21 503.9 4577.26 498.84C4586.3 493.627 4596.42 491.02 4607.62 491.02C4618.35 491.02 4627.93 493.55 4636.37 498.61C4644.95 503.67 4651.7 510.723 4656.61 519.77V441.34H4668.11ZM4608.31 602.57C4617.51 602.57 4625.71 600.423 4632.92 596.13C4640.28 591.837 4646.03 585.857 4650.17 578.19C4654.46 570.523 4656.61 561.783 4656.61 551.97C4656.61 542.157 4654.46 533.417 4650.17 525.75C4646.03 518.083 4640.28 512.103 4632.92 507.81C4625.71 503.517 4617.51 501.37 4608.31 501.37C4599.11 501.37 4590.83 503.517 4583.47 507.81C4576.26 512.103 4570.51 518.083 4566.22 525.75C4562.08 533.417 4560.01 542.157 4560.01 551.97C4560.01 561.783 4562.08 570.523 4566.22 578.19C4570.51 585.857 4576.26 591.837 4583.47 596.13C4590.83 600.423 4599.11 602.57 4608.31 602.57ZM4820.55 491.94V612H4809.51V586.24C4805.53 594.673 4799.62 601.267 4791.8 606.02C4783.98 610.62 4774.78 612.92 4764.2 612.92C4748.56 612.92 4736.3 608.55 4727.4 599.81C4718.51 591.07 4714.06 578.497 4714.06 562.09V491.94H4725.56V561.17C4725.56 574.663 4729.01 584.937 4735.91 591.99C4742.81 599.043 4752.55 602.57 4765.12 602.57C4778.62 602.57 4789.27 598.353 4797.09 589.92C4805.07 581.487 4809.05 570.14 4809.05 555.88V491.94H4820.55ZM4868.15 441.34H4879.65V612H4868.15V441.34ZM4926.97 491.94H4938.47V612H4926.97V491.94ZM4932.72 462.73C4930.11 462.73 4927.89 461.887 4926.05 460.2C4924.21 458.36 4923.29 456.137 4923.29 453.53C4923.29 450.923 4924.21 448.7 4926.05 446.86C4927.89 445.02 4930.11 444.1 4932.72 444.1C4935.33 444.1 4937.55 445.02 4939.39 446.86C4941.23 448.547 4942.15 450.693 4942.15 453.3C4942.15 455.907 4941.23 458.13 4939.39 459.97C4937.55 461.81 4935.33 462.73 4932.72 462.73ZM5044.44 491.02C5059.47 491.02 5071.35 495.39 5080.09 504.13C5088.83 512.87 5093.2 525.443 5093.2 541.85V612H5081.7V542.77C5081.7 529.277 5078.25 519.003 5071.35 511.95C5064.6 504.897 5055.1 501.37 5042.83 501.37C5028.72 501.37 5017.61 505.587 5009.48 514.02C5001.35 522.453 4997.29 533.8 4997.29 548.06V612H4985.79V491.94H4996.83V517.93C5000.97 509.497 5007.1 502.903 5015.23 498.15C5023.51 493.397 5033.25 491.02 5044.44 491.02ZM5247.72 491.94V599.12C5247.72 619.053 5242.89 633.773 5233.23 643.28C5223.57 652.787 5209.01 657.54 5189.53 657.54C5178.49 657.54 5168.07 655.853 5158.25 652.48C5148.44 649.107 5140.54 644.43 5134.56 638.45L5140.77 629.71C5146.75 635.23 5153.96 639.523 5162.39 642.59C5170.83 645.657 5179.8 647.19 5189.3 647.19C5205.25 647.19 5217.06 643.357 5224.72 635.69C5232.39 628.177 5236.22 616.447 5236.22 600.5V580.26C5231.32 589 5224.49 595.747 5215.75 600.5C5207.01 605.253 5197.2 607.63 5186.31 607.63C5175.12 607.63 5164.92 605.177 5155.72 600.27C5146.68 595.21 5139.55 588.233 5134.33 579.34C5129.12 570.447 5126.51 560.403 5126.51 549.21C5126.51 538.017 5129.12 527.973 5134.33 519.08C5139.55 510.187 5146.68 503.287 5155.72 498.38C5164.92 493.473 5175.12 491.02 5186.31 491.02C5197.35 491.02 5207.32 493.473 5216.21 498.38C5225.11 503.287 5231.93 510.187 5236.68 519.08V491.94H5247.72ZM5187.23 597.28C5196.59 597.28 5205.02 595.287 5212.53 591.3C5220.05 587.16 5225.87 581.487 5230.01 574.28C5234.31 566.92 5236.45 558.563 5236.45 549.21C5236.45 539.857 5234.31 531.577 5230.01 524.37C5225.87 517.163 5220.05 511.567 5212.53 507.58C5205.02 503.44 5196.59 501.37 5187.23 501.37C5177.88 501.37 5169.45 503.44 5161.93 507.58C5154.57 511.567 5148.75 517.163 5144.45 524.37C5140.31 531.577 5138.24 539.857 5138.24 549.21C5138.24 558.563 5140.31 566.92 5144.45 574.28C5148.75 581.487 5154.57 587.16 5161.93 591.3C5169.45 595.287 5177.88 597.28 5187.23 597.28ZM5393.65 491.02C5408.52 491.02 5419.95 494.853 5427.92 502.52C5435.89 510.033 5439.88 521.15 5439.88 535.87V612H5428.84V590.61C5425.01 597.663 5419.41 603.183 5412.05 607.17C5404.69 611.003 5395.87 612.92 5385.6 612.92C5372.26 612.92 5361.68 609.777 5353.86 603.49C5346.19 597.203 5342.36 588.923 5342.36 578.65C5342.36 568.683 5345.89 560.633 5352.94 554.5C5360.15 548.213 5371.57 545.07 5387.21 545.07H5428.38V535.41C5428.38 524.217 5425.31 515.707 5419.18 509.88C5413.2 504.053 5404.38 501.14 5392.73 501.14C5384.76 501.14 5377.09 502.52 5369.73 505.28C5362.52 508.04 5356.39 511.72 5351.33 516.32L5345.58 508.04C5351.56 502.673 5358.77 498.533 5367.2 495.62C5375.63 492.553 5384.45 491.02 5393.65 491.02ZM5387.21 603.49C5397.18 603.49 5405.61 601.19 5412.51 596.59C5419.56 591.99 5424.85 585.32 5428.38 576.58V554.04H5387.44C5375.63 554.04 5367.05 556.187 5361.68 560.48C5356.47 564.773 5353.86 570.677 5353.86 578.19C5353.86 586.01 5356.77 592.22 5362.6 596.82C5368.43 601.267 5376.63 603.49 5387.21 603.49ZM5544.76 491.02C5559.79 491.02 5571.67 495.39 5580.41 504.13C5589.15 512.87 5593.52 525.443 5593.52 541.85V612H5582.02V542.77C5582.02 529.277 5578.57 519.003 5571.67 511.95C5564.93 504.897 5555.42 501.37 5543.15 501.37C5529.05 501.37 5517.93 505.587 5509.8 514.02C5501.68 522.453 5497.61 533.8 5497.61 548.06V612H5486.11V491.94H5497.15V517.93C5501.29 509.497 5507.43 502.903 5515.55 498.15C5523.83 493.397 5533.57 491.02 5544.76 491.02ZM5746.66 441.34V612H5735.39V583.71C5730.64 593.063 5723.97 600.27 5715.38 605.33C5706.8 610.39 5697.06 612.92 5686.17 612.92C5674.98 612.92 5664.86 610.313 5655.81 605.1C5646.77 599.887 5639.64 592.68 5634.42 583.48C5629.36 574.28 5626.83 563.777 5626.83 551.97C5626.83 540.163 5629.36 529.66 5634.42 520.46C5639.64 511.107 5646.77 503.9 5655.81 498.84C5664.86 493.627 5674.98 491.02 5686.17 491.02C5696.91 491.02 5706.49 493.55 5714.92 498.61C5723.51 503.67 5730.26 510.723 5735.16 519.77V441.34H5746.66ZM5686.86 602.57C5696.06 602.57 5704.27 600.423 5711.47 596.13C5718.83 591.837 5724.58 585.857 5728.72 578.19C5733.02 570.523 5735.16 561.783 5735.16 551.97C5735.16 542.157 5733.02 533.417 5728.72 525.75C5724.58 518.083 5718.83 512.103 5711.47 507.81C5704.27 503.517 5696.06 501.37 5686.86 501.37C5677.66 501.37 5669.38 503.517 5662.02 507.81C5654.82 512.103 5649.07 518.083 5644.77 525.75C5640.63 533.417 5638.56 542.157 5638.56 551.97C5638.56 561.783 5640.63 570.523 5644.77 578.19C5649.07 585.857 5654.82 591.837 5662.02 596.13C5669.38 600.423 5677.66 602.57 5686.86 602.57ZM4085.99 831.92C4074.34 831.92 4063.91 829.313 4054.71 824.1C4045.51 818.887 4038.3 811.68 4033.09 802.48C4027.88 793.127 4025.27 782.623 4025.27 770.97C4025.27 759.163 4027.88 748.66 4033.09 739.46C4038.3 730.107 4045.51 722.9 4054.71 717.84C4063.91 712.627 4074.34 710.02 4085.99 710.02C4095.65 710.02 4104.39 711.937 4112.21 715.77C4120.18 719.45 4126.62 724.893 4131.53 732.1L4123.02 738.31C4118.73 732.33 4113.36 727.883 4106.92 724.97C4100.63 721.903 4093.66 720.37 4085.99 720.37C4076.64 720.37 4068.2 722.517 4060.69 726.81C4053.33 730.95 4047.5 736.853 4043.21 744.52C4039.07 752.187 4037 761.003 4037 770.97C4037 780.937 4039.07 789.753 4043.21 797.42C4047.5 805.087 4053.33 811.067 4060.69 815.36C4068.2 819.5 4076.64 821.57 4085.99 821.57C4093.66 821.57 4100.63 820.113 4106.92 817.2C4113.36 814.133 4118.73 809.61 4123.02 803.63L4131.53 809.84C4126.62 817.047 4120.18 822.567 4112.21 826.4C4104.39 830.08 4095.65 831.92 4085.99 831.92ZM4209.71 831.92C4198.36 831.92 4188.09 829.313 4178.89 824.1C4169.84 818.887 4162.71 811.68 4157.5 802.48C4152.28 793.127 4149.68 782.623 4149.68 770.97C4149.68 759.317 4152.28 748.89 4157.5 739.69C4162.71 730.337 4169.84 723.053 4178.89 717.84C4188.09 712.627 4198.36 710.02 4209.71 710.02C4221.05 710.02 4231.25 712.627 4240.3 717.84C4249.5 723.053 4256.7 730.337 4261.92 739.69C4267.13 748.89 4269.74 759.317 4269.74 770.97C4269.74 782.623 4267.13 793.127 4261.92 802.48C4256.7 811.68 4249.5 818.887 4240.3 824.1C4231.25 829.313 4221.05 831.92 4209.71 831.92ZM4209.71 821.57C4218.91 821.57 4227.11 819.423 4234.32 815.13C4241.68 810.837 4247.43 804.857 4251.57 797.19C4255.86 789.523 4258.01 780.783 4258.01 770.97C4258.01 761.157 4255.86 752.417 4251.57 744.75C4247.43 737.083 4241.68 731.103 4234.32 726.81C4227.11 722.517 4218.91 720.37 4209.71 720.37C4200.51 720.37 4192.23 722.517 4184.87 726.81C4177.66 731.103 4171.91 737.083 4167.62 744.75C4163.48 752.417 4161.41 761.157 4161.41 770.97C4161.41 780.783 4163.48 789.523 4167.62 797.19C4171.91 804.857 4177.66 810.837 4184.87 815.13C4192.23 819.423 4200.51 821.57 4209.71 821.57ZM4453.76 710.02C4468.64 710.02 4480.29 714.39 4488.72 723.13C4497.31 731.87 4501.6 744.443 4501.6 760.85V831H4490.1V761.77C4490.1 748.277 4486.81 738.003 4480.21 730.95C4473.62 723.897 4464.42 720.37 4452.61 720.37C4439.12 720.37 4428.39 724.587 4420.41 733.02C4412.59 741.453 4408.68 752.8 4408.68 767.06V831H4397.18V761.77C4397.18 748.277 4393.89 738.003 4387.29 730.95C4380.7 723.897 4371.5 720.37 4359.69 720.37C4346.2 720.37 4335.47 724.587 4327.49 733.02C4319.67 741.453 4315.76 752.8 4315.76 767.06V831H4304.26V710.94H4315.3V736.7C4319.29 728.267 4325.19 721.75 4333.01 717.15C4340.99 712.397 4350.42 710.02 4361.3 710.02C4372.19 710.02 4381.39 712.473 4388.9 717.38C4396.57 722.287 4402.01 729.493 4405.23 739C4409.22 730.107 4415.43 723.053 4423.86 717.84C4432.45 712.627 4442.42 710.02 4453.76 710.02ZM4697.44 710.02C4712.31 710.02 4723.96 714.39 4732.4 723.13C4740.98 731.87 4745.28 744.443 4745.28 760.85V831H4733.78V761.77C4733.78 748.277 4730.48 738.003 4723.89 730.95C4717.29 723.897 4708.09 720.37 4696.29 720.37C4682.79 720.37 4672.06 724.587 4664.09 733.02C4656.27 741.453 4652.36 752.8 4652.36 767.06V831H4640.86V761.77C4640.86 748.277 4637.56 738.003 4630.97 730.95C4624.37 723.897 4615.17 720.37 4603.37 720.37C4589.87 720.37 4579.14 724.587 4571.17 733.02C4563.35 741.453 4559.44 752.8 4559.44 767.06V831H4547.94V710.94H4558.98V736.7C4562.96 728.267 4568.87 721.75 4576.69 717.15C4584.66 712.397 4594.09 710.02 4604.98 710.02C4615.86 710.02 4625.06 712.473 4632.58 717.38C4640.24 722.287 4645.69 729.493 4648.91 739C4652.89 730.107 4659.1 723.053 4667.54 717.84C4676.12 712.627 4686.09 710.02 4697.44 710.02ZM4896.72 710.94V831H4885.68V805.24C4881.7 813.673 4875.79 820.267 4867.97 825.02C4860.15 829.62 4850.95 831.92 4840.37 831.92C4824.73 831.92 4812.47 827.55 4803.57 818.81C4794.68 810.07 4790.23 797.497 4790.23 781.09V710.94H4801.73V780.17C4801.73 793.663 4805.18 803.937 4812.08 810.99C4818.98 818.043 4828.72 821.57 4841.29 821.57C4854.79 821.57 4865.44 817.353 4873.26 808.92C4881.24 800.487 4885.22 789.14 4885.22 774.88V710.94H4896.72ZM5002.97 710.02C5018 710.02 5029.88 714.39 5038.62 723.13C5047.36 731.87 5051.73 744.443 5051.73 760.85V831H5040.23V761.77C5040.23 748.277 5036.78 738.003 5029.88 730.95C5023.13 723.897 5013.63 720.37 5001.36 720.37C4987.25 720.37 4976.14 724.587 4968.01 733.02C4959.88 741.453 4955.82 752.8 4955.82 767.06V831H4944.32V710.94H4955.36V736.93C4959.5 728.497 4965.63 721.903 4973.76 717.15C4982.04 712.397 4991.78 710.02 5002.97 710.02ZM5097.93 710.94H5109.43V831H5097.93V710.94ZM5103.68 681.73C5101.07 681.73 5098.85 680.887 5097.01 679.2C5095.17 677.36 5094.25 675.137 5094.25 672.53C5094.25 669.923 5095.17 667.7 5097.01 665.86C5098.85 664.02 5101.07 663.1 5103.68 663.1C5106.28 663.1 5108.51 664.02 5110.35 665.86C5112.19 667.547 5113.11 669.693 5113.11 672.3C5113.11 674.907 5112.19 677.13 5110.35 678.97C5108.51 680.81 5106.28 681.73 5103.68 681.73ZM5204.36 831.92C5192.7 831.92 5182.28 829.313 5173.08 824.1C5163.88 818.887 5156.67 811.68 5151.46 802.48C5146.24 793.127 5143.64 782.623 5143.64 770.97C5143.64 759.163 5146.24 748.66 5151.46 739.46C5156.67 730.107 5163.88 722.9 5173.08 717.84C5182.28 712.627 5192.7 710.02 5204.36 710.02C5214.02 710.02 5222.76 711.937 5230.58 715.77C5238.55 719.45 5244.99 724.893 5249.9 732.1L5241.39 738.31C5237.09 732.33 5231.73 727.883 5225.29 724.97C5219 721.903 5212.02 720.37 5204.36 720.37C5195 720.37 5186.57 722.517 5179.06 726.81C5171.7 730.95 5165.87 736.853 5161.58 744.52C5157.44 752.187 5155.37 761.003 5155.37 770.97C5155.37 780.937 5157.44 789.753 5161.58 797.42C5165.87 805.087 5171.7 811.067 5179.06 815.36C5186.57 819.5 5195 821.57 5204.36 821.57C5212.02 821.57 5219 820.113 5225.29 817.2C5231.73 814.133 5237.09 809.61 5241.39 803.63L5249.9 809.84C5244.99 817.047 5238.55 822.567 5230.58 826.4C5222.76 830.08 5214.02 831.92 5204.36 831.92ZM5323.65 710.02C5338.53 710.02 5349.95 713.853 5357.92 721.52C5365.9 729.033 5369.88 740.15 5369.88 754.87V831H5358.84V809.61C5355.01 816.663 5349.41 822.183 5342.05 826.17C5334.69 830.003 5325.88 831.92 5315.6 831.92C5302.26 831.92 5291.68 828.777 5283.86 822.49C5276.2 816.203 5272.36 807.923 5272.36 797.65C5272.36 787.683 5275.89 779.633 5282.94 773.5C5290.15 767.213 5301.57 764.07 5317.21 764.07H5358.38V754.41C5358.38 743.217 5355.32 734.707 5349.18 728.88C5343.2 723.053 5334.39 720.14 5322.73 720.14C5314.76 720.14 5307.09 721.52 5299.73 724.28C5292.53 727.04 5286.39 730.72 5281.33 735.32L5275.58 727.04C5281.56 721.673 5288.77 717.533 5297.2 714.62C5305.64 711.553 5314.45 710.02 5323.65 710.02ZM5317.21 822.49C5327.18 822.49 5335.61 820.19 5342.51 815.59C5349.57 810.99 5354.86 804.32 5358.38 795.58V773.04H5317.44C5305.64 773.04 5297.05 775.187 5291.68 779.48C5286.47 783.773 5283.86 789.677 5283.86 797.19C5283.86 805.01 5286.78 811.22 5292.6 815.82C5298.43 820.267 5306.63 822.49 5317.21 822.49ZM5475.69 823.41C5472.77 826.17 5469.09 828.317 5464.65 829.85C5460.35 831.23 5455.83 831.92 5451.08 831.92C5440.65 831.92 5432.6 829.083 5426.93 823.41C5421.25 817.583 5418.42 809.533 5418.42 799.26V720.83H5396.34V710.94H5418.42V684.72H5429.92V710.94H5468.1V720.83H5429.92V798.11C5429.92 805.93 5431.76 811.91 5435.44 816.05C5439.27 820.037 5444.87 822.03 5452.23 822.03C5459.74 822.03 5465.95 819.807 5470.86 815.36L5475.69 823.41ZM5506.61 710.94H5518.11V831H5506.61V710.94ZM5512.36 681.73C5509.75 681.73 5507.53 680.887 5505.69 679.2C5503.85 677.36 5502.93 675.137 5502.93 672.53C5502.93 669.923 5503.85 667.7 5505.69 665.86C5507.53 664.02 5509.75 663.1 5512.36 663.1C5514.96 663.1 5517.19 664.02 5519.03 665.86C5520.87 667.547 5521.79 669.693 5521.79 672.3C5521.79 674.907 5520.87 677.13 5519.03 678.97C5517.19 680.81 5514.96 681.73 5512.36 681.73ZM5612.35 831.92C5601 831.92 5590.73 829.313 5581.53 824.1C5572.48 818.887 5565.35 811.68 5560.14 802.48C5554.92 793.127 5552.32 782.623 5552.32 770.97C5552.32 759.317 5554.92 748.89 5560.14 739.69C5565.35 730.337 5572.48 723.053 5581.53 717.84C5590.73 712.627 5601 710.02 5612.35 710.02C5623.69 710.02 5633.89 712.627 5642.94 717.84C5652.14 723.053 5659.34 730.337 5664.56 739.69C5669.77 748.89 5672.38 759.317 5672.38 770.97C5672.38 782.623 5669.77 793.127 5664.56 802.48C5659.34 811.68 5652.14 818.887 5642.94 824.1C5633.89 829.313 5623.69 831.92 5612.35 831.92ZM5612.35 821.57C5621.55 821.57 5629.75 819.423 5636.96 815.13C5644.32 810.837 5650.07 804.857 5654.21 797.19C5658.5 789.523 5660.65 780.783 5660.65 770.97C5660.65 761.157 5658.5 752.417 5654.21 744.75C5650.07 737.083 5644.32 731.103 5636.96 726.81C5629.75 722.517 5621.55 720.37 5612.35 720.37C5603.15 720.37 5594.87 722.517 5587.51 726.81C5580.3 731.103 5574.55 737.083 5570.26 744.75C5566.12 752.417 5564.05 761.157 5564.05 770.97C5564.05 780.783 5566.12 789.523 5570.26 797.19C5574.55 804.857 5580.3 810.837 5587.51 815.13C5594.87 819.423 5603.15 821.57 5612.35 821.57ZM5765.55 710.02C5780.58 710.02 5792.46 714.39 5801.2 723.13C5809.94 731.87 5814.31 744.443 5814.31 760.85V831H5802.81V761.77C5802.81 748.277 5799.36 738.003 5792.46 730.95C5785.72 723.897 5776.21 720.37 5763.94 720.37C5749.84 720.37 5738.72 724.587 5730.59 733.02C5722.47 741.453 5718.4 752.8 5718.4 767.06V831H5706.9V710.94H5717.94V736.93C5722.08 728.497 5728.22 721.903 5736.34 717.15C5744.62 712.397 5754.36 710.02 5765.55 710.02ZM4049.42 956.16C4053.1 947.42 4058.85 940.75 4066.67 936.15C4074.49 931.397 4084 929.02 4095.19 929.02V940.29L4092.43 940.06C4079.09 940.06 4068.66 944.277 4061.15 952.71C4053.64 960.99 4049.88 972.567 4049.88 987.44V1050H4038.38V929.94H4049.42V956.16ZM4232.86 929.94V1050H4221.82V1024.24C4217.83 1032.67 4211.93 1039.27 4204.11 1044.02C4196.29 1048.62 4187.09 1050.92 4176.51 1050.92C4160.87 1050.92 4148.6 1046.55 4139.71 1037.81C4130.81 1029.07 4126.37 1016.5 4126.37 1000.09V929.94H4137.87V999.17C4137.87 1012.66 4141.32 1022.94 4148.22 1029.99C4155.12 1037.04 4164.85 1040.57 4177.43 1040.57C4190.92 1040.57 4201.58 1036.35 4209.4 1027.92C4217.37 1019.49 4221.36 1008.14 4221.36 993.88V929.94H4232.86ZM4339.11 929.02C4354.13 929.02 4366.02 933.39 4374.76 942.13C4383.5 950.87 4387.87 963.443 4387.87 979.85V1050H4376.36V980.77C4376.36 967.277 4372.91 957.003 4366.02 949.95C4359.27 942.897 4349.76 939.37 4337.49 939.37C4323.39 939.37 4312.27 943.587 4304.14 952.02C4296.02 960.453 4291.95 971.8 4291.95 986.06V1050H4280.45V929.94H4291.5V955.93C4295.63 947.497 4301.77 940.903 4309.89 936.15C4318.18 931.397 4327.91 929.02 4339.11 929.02ZM4493.63 1042.41C4490.72 1045.17 4487.04 1047.32 4482.59 1048.85C4478.3 1050.23 4473.77 1050.92 4469.02 1050.92C4458.59 1050.92 4450.54 1048.08 4444.87 1042.41C4439.2 1036.58 4436.36 1028.53 4436.36 1018.26V939.83H4414.28V929.94H4436.36V903.72H4447.86V929.94H4486.04V939.83H4447.86V1017.11C4447.86 1024.93 4449.7 1030.91 4453.38 1035.05C4457.21 1039.04 4462.81 1041.03 4470.17 1041.03C4477.68 1041.03 4483.89 1038.81 4488.8 1034.36L4493.63 1042.41ZM4524.55 929.94H4536.05V1050H4524.55V929.94ZM4530.3 900.73C4527.69 900.73 4525.47 899.887 4523.63 898.2C4521.79 896.36 4520.87 894.137 4520.87 891.53C4520.87 888.923 4521.79 886.7 4523.63 884.86C4525.47 883.02 4527.69 882.1 4530.3 882.1C4532.91 882.1 4535.13 883.02 4536.97 884.86C4538.81 886.547 4539.73 888.693 4539.73 891.3C4539.73 893.907 4538.81 896.13 4536.97 897.97C4535.13 899.81 4532.91 900.73 4530.3 900.73ZM4732.87 929.02C4747.75 929.02 4759.4 933.39 4767.83 942.13C4776.42 950.87 4780.71 963.443 4780.71 979.85V1050H4769.21V980.77C4769.21 967.277 4765.92 957.003 4759.32 949.95C4752.73 942.897 4743.53 939.37 4731.72 939.37C4718.23 939.37 4707.5 943.587 4699.52 952.02C4691.7 960.453 4687.79 971.8 4687.79 986.06V1050H4676.29V980.77C4676.29 967.277 4673 957.003 4666.4 949.95C4659.81 942.897 4650.61 939.37 4638.8 939.37C4625.31 939.37 4614.58 943.587 4606.6 952.02C4598.78 960.453 4594.87 971.8 4594.87 986.06V1050H4583.37V929.94H4594.41V955.7C4598.4 947.267 4604.3 940.75 4612.12 936.15C4620.1 931.397 4629.53 929.02 4640.41 929.02C4651.3 929.02 4660.5 931.473 4668.01 936.38C4675.68 941.287 4681.12 948.493 4684.34 958C4688.33 949.107 4694.54 942.053 4702.97 936.84C4711.56 931.627 4721.53 929.02 4732.87 929.02ZM4928.7 992.73H4825.43C4825.74 1002.08 4828.11 1010.44 4832.56 1017.8C4837.01 1025.01 4842.99 1030.6 4850.5 1034.59C4858.17 1038.58 4866.75 1040.57 4876.26 1040.57C4884.08 1040.57 4891.29 1039.19 4897.88 1036.43C4904.63 1033.52 4910.22 1029.3 4914.67 1023.78L4921.34 1031.37C4916.13 1037.66 4909.53 1042.49 4901.56 1045.86C4893.74 1049.23 4885.23 1050.92 4876.03 1050.92C4864.07 1050.92 4853.41 1048.31 4844.06 1043.1C4834.71 1037.89 4827.35 1030.68 4821.98 1021.48C4816.77 1012.28 4814.16 1001.78 4814.16 989.97C4814.16 978.317 4816.61 967.89 4821.52 958.69C4826.58 949.337 4833.48 942.053 4842.22 936.84C4850.96 931.627 4860.77 929.02 4871.66 929.02C4882.55 929.02 4892.28 931.627 4900.87 936.84C4909.61 941.9 4916.43 949.03 4921.34 958.23C4926.4 967.43 4928.93 977.857 4928.93 989.51L4928.7 992.73ZM4871.66 939.14C4863.23 939.14 4855.64 941.057 4848.89 944.89C4842.14 948.57 4836.7 953.86 4832.56 960.76C4828.57 967.507 4826.27 975.173 4825.66 983.76H4917.66C4917.2 975.173 4914.9 967.507 4910.76 960.76C4906.62 954.013 4901.18 948.723 4894.43 944.89C4887.68 941.057 4880.09 939.14 4871.66 939.14ZM4961.98 1050.92C4959.37 1050.92 4957.07 1050 4955.08 1048.16C4953.24 1046.17 4952.32 1043.79 4952.32 1041.03C4952.32 1038.27 4953.24 1035.97 4955.08 1034.13C4957.07 1032.29 4959.37 1031.37 4961.98 1031.37C4964.58 1031.37 4966.81 1032.29 4968.65 1034.13C4970.64 1035.97 4971.64 1038.27 4971.64 1041.03C4971.64 1043.79 4970.64 1046.17 4968.65 1048.16C4966.81 1050 4964.58 1050.92 4961.98 1050.92Z" fill="white"/>
<line x1="1521" y1="237.5" x2="3782" y2="237.5" stroke="white" stroke-width="11"/>
<line x1="1521" y1="1044.5" x2="3782" y2="1044.5" stroke="white" stroke-width="11"/>
<line x1="1521" y1="634.5" x2="3782" y2="634.5" stroke="white" stroke-width="11"/>
</svg>
